HIERARCHY
ROOT hip
{
  OFFSET 0 0 0
  CHANNELS 6 Xposition Yposition Zposition Zrotation Yrotation Xrotation
  JOINT abdomen
  {
    OFFSET 0 20.6881 -0.73152
    CHANNELS 3 Zrotation Xrotation Yrotation
    JOINT chest
    {
      OFFSET 0 11.7043 -0.48768
      CHANNELS 3 Zrotation Xrotation Yrotation
      JOINT neck
      {
        OFFSET 0 22.1894 -2.19456
        CHANNELS 3 Zrotation Xrotation Yrotation
        JOINT head
        {
          OFFSET -0.24384 7.07133 1.2192
          CHANNELS 3 Zrotation Xrotation Yrotation
          JOINT leftEye
          {
            OFFSET 4.14528 8.04674 8.04672
            CHANNELS 3 Zrotation Xrotation Yrotation
            End Site
            {
              OFFSET 1 0 0
            }
          }
          JOINT rightEye
          {
            OFFSET -3.6576 8.04674 8.04672
            CHANNELS 3 Zrotation Xrotation Yrotation
            End Site
            {
              OFFSET 1 0 0
            }
          }
        }
      }
      JOINT rCollar
      {
        OFFSET -2.68224 19.2634 -4.8768
        CHANNELS 3 Zrotation Xrotation Yrotation
        JOINT rShldr
        {
          OFFSET -8.77824 -1.95073 1.46304
          CHANNELS 3 Zrotation Xrotation Yrotation
          JOINT rForeArm
          {
            OFFSET -28.1742 -1.7115 0.48768
            CHANNELS 3 Zrotation Xrotation Yrotation
            JOINT rHand
            {
              OFFSET -22.5879 0.773209 7.07136
              CHANNELS 3 Zrotation Xrotation Yrotation
              JOINT rThumb1
              {
                OFFSET -1.2192 -0.487915 3.41376
                CHANNELS 3 Zrotation Xrotation Yrotation
                JOINT rThumb2
                {
                  OFFSET -3.37035 -0.52449 3.41376
                  CHANNELS 3 Zrotation Xrotation Yrotation
                  End Site
                  {
                    OFFSET -1.78271 -1.18214 1.43049
                  }
                }
              }
              JOINT rIndex1
              {
                OFFSET -7.75947 0.938293 5.60832
                CHANNELS 3 Zrotation Xrotation Yrotation
                JOINT rIndex2
                {
                  OFFSET -2.54057 -0.884171 1.56538
                  CHANNELS 3 Zrotation Xrotation Yrotation
                  End Site
                  {
                    OFFSET -1.62519 -0.234802 1.16502
                  }
                }
              }
              JOINT rMid1
              {
                OFFSET -8.24714 1.18213 3.41376
                CHANNELS 3 Zrotation Xrotation Yrotation
                JOINT rMid2
                {
                  OFFSET -3.10165 -0.590103 1.0647
                  CHANNELS 3 Zrotation Xrotation Yrotation
                  End Site
                  {
                    OFFSET -2.48547 -0.328903 0.83742
                  }
                }
              }
              JOINT rRing1
              {
                OFFSET -8.82822 0.546677 1.51678
                CHANNELS 3 Zrotation Xrotation Yrotation
                JOINT rRing2
                {
                  OFFSET -2.60934 -0.819778 -0.0198488
                  CHANNELS 3 Zrotation Xrotation Yrotation
                  End Site
                  {
                    OFFSET -2.33842 -0.294052 0.168128
                  }
                }
              }
              JOINT rPinky1
              {
                OFFSET -8.27202 -0.0477905 -0.4584
                CHANNELS 3 Zrotation Xrotation Yrotation
                JOINT rPinky2
                {
                  OFFSET -1.82734 -0.647385 -0.700984
                  CHANNELS 3 Zrotation Xrotation Yrotation
                  End Site
                  {
                    OFFSET -1.69225 -0.51767 -0.607171
                  }
                }
              }
            }
          }
        }
      }
      JOINT lCollar
      {
        OFFSET 2.68224 19.2634 -4.8768
        CHANNELS 3 Zrotation Xrotation Yrotation
        JOINT lShldr
        {
          OFFSET 8.77824 -1.95073 1.46304
          CHANNELS 3 Zrotation Xrotation Yrotation
          JOINT lForeArm
          {
            OFFSET 28.1742 -1.7115 0.48768
            CHANNELS 3 Zrotation Xrotation Yrotation
            JOINT lHand
            {
              OFFSET 22.5879 0.773209 7.07136
              CHANNELS 3 Zrotation Xrotation Yrotation
              JOINT lThumb1
              {
                OFFSET 1.2192 -0.487915 3.41376
                CHANNELS 3 Zrotation Xrotation Yrotation
                JOINT lThumb2
                {
                  OFFSET 3.37035 -0.52449 3.41376
                  CHANNELS 3 Zrotation Xrotation Yrotation
                  End Site
                  {
                    OFFSET 1.78271 -1.18214 1.43049
                  }
                }
              }
              JOINT lIndex1
              {
                OFFSET 7.75947 0.938293 5.60832
                CHANNELS 3 Zrotation Xrotation Yrotation
                JOINT lIndex2
                {
                  OFFSET 2.54057 -0.884171 1.56538
                  CHANNELS 3 Zrotation Xrotation Yrotation
                  End Site
                  {
                    OFFSET 1.62519 -0.234802 1.16502
                  }
                }
              }
              JOINT lMid1
              {
                OFFSET 8.24714 1.18213 3.41376
                CHANNELS 3 Zrotation Xrotation Yrotation
                JOINT lMid2
                {
                  OFFSET 3.10165 -0.590103 1.0647
                  CHANNELS 3 Zrotation Xrotation Yrotation
                  End Site
                  {
                    OFFSET 2.48547 -0.328903 0.83742
                  }
                }
              }
              JOINT lRing1
              {
                OFFSET 8.82822 0.546677 1.51678
                CHANNELS 3 Zrotation Xrotation Yrotation
                JOINT lRing2
                {
                  OFFSET 2.60934 -0.819778 -0.0198488
                  CHANNELS 3 Zrotation Xrotation Yrotation
                  End Site
                  {
                    OFFSET 2.33842 -0.294052 0.168128
                  }
                }
              }
              JOINT lPinky1
              {
                OFFSET 8.27202 -0.0477905 -0.4584
                CHANNELS 3 Zrotation Xrotation Yrotation
                JOINT lPinky2
                {
                  OFFSET 1.82734 -0.647385 -0.700984
                  CHANNELS 3 Zrotation Xrotation Yrotation
                  End Site
                  {
                    OFFSET 1.69225 -0.51767 -0.607171
                  }
                }
              }
            }
          }
        }
      }
    }
  }
  JOINT rButtock
  {
    OFFSET -8.77824 4.35084 1.2192
    CHANNELS 3 Zrotation Xrotation Yrotation
    JOINT rThigh
    {
      OFFSET 0 -1.70687 -2.19456
      CHANNELS 3 Zrotation Xrotation Yrotation
      JOINT rShin
      {
        OFFSET 0 -36.8199 0.73152
        CHANNELS 3 Zrotation Xrotation Yrotation
        JOINT rFoot
        {
          OFFSET 0.73152 -45.1104 -5.12064
          CHANNELS 3 Zrotation Xrotation Yrotation
          End Site
          {
            OFFSET -1.1221 -3.69964 12.103
          }
        }
      }
    }
  }
  JOINT lButtock
  {
    OFFSET 8.77824 4.35084 1.2192
    CHANNELS 3 Zrotation Xrotation Yrotation
    JOINT lThigh
    {
      OFFSET 0 -1.70687 -2.19456
      CHANNELS 3 Zrotation Xrotation Yrotation
      JOINT lShin
      {
        OFFSET 0 -36.8199 0.73152
        CHANNELS 3 Zrotation Xrotation Yrotation
        JOINT lFoot
        {
          OFFSET -0.73152 -45.1104 -5.12064
          CHANNELS 3 Zrotation Xrotation Yrotation
          End Site
          {
            OFFSET 1.1221 -3.69964 12.103
          }
        }
      }
    }
  }
}
MOTION
Frames:	5
Frame Time:	0.00833333
-18.8219 80.4707 -22.314 12.1377 41.8239 69.472 14.0929 56.3685 12.6894 2.80118 -3.76174 5.53899 2.17397 4.99864 -10.9553 -16.0066 -36.7801 -29.7888 -0.0 0.0 0.0 -0.0 0.0 0.0 -4.44917e-13 -2.97413e-13 2.72901e-13 21.6369 -46.2659 62.8925 -12.7889 -6.01761 23.1475 -0.17582 -11.8723 -1.69303 -1.64303e-10 1.76277e-09 1.92874e-09 -2.84578e-10 3.05975e-09 3.324e-09 -1.64296e-10 1.76277e-09 1.92874e-09 7.73091 5.47488 0.417314 -1.64306e-10 1.76277e-09 1.92874e-09 2.90554 0.965183 0.102902 -1.64297e-10 1.76277e-09 1.92874e-09 10.2786 0.731801 0.0259123 -1.64309e-10 1.76277e-09 1.92875e-09 2.22167 -0.733487 -0.20892 -4.45014e-13 -2.97401e-13 2.7271e-13 -53.1394 48.3316 -33.7675 27.5458 -28.3714 -64.6553 0.604989 -21.5393 3.17993 4.06667e-10 -1.88923e-09 -1.06588e-08 8.74492e-10 -3.44596e-09 -1.84061e-08 4.06664e-10 -1.88923e-09 -1.06588e-08 -7.73091 5.47488 -0.417314 4.06666e-10 -1.88923e-09 -1.06588e-08 -2.90554 0.965183 -0.102902 4.06665e-10 -1.88923e-09 -1.06588e-08 -10.2786 0.731801 -0.0259123 4.06672e-10 -1.88923e-09 -1.06588e-08 -2.22167 -0.733487 0.20892 -2.03217e-16 0.0 -3.88251e-19 -119.124 -79.5188 -123.629 -0.31301 38.6532 0.726252 -0.217999 -1.06308 0.831291 2.03217e-16 0.0 3.88251e-19 1.77709 -68.6063 -10.1878 0.0197874 27.5837 -0.80061 -1.4425 -5.28578 -13.7462
-18.956 80.5002 -22.26 11.7298 41.6039 69.5481 13.9311 56.2941 12.8388 2.82817 -3.76439 5.55275 2.19519 5.0467 -10.9624 -16.0377 -36.8451 -29.8326 -0.0 0.0 0.0 -0.0 0.0 0.0 -4.64252e-13 -2.63996e-13 1.86112e-13 21.607 -46.2631 62.8712 -12.7726 -6.00549 23.1157 -0.166143 -11.5391 -1.64423 -1.58404e-10 2.60601e-09 2.1732e-09 -2.73467e-10 4.52176e-09 3.74603e-09 -1.58398e-10 2.60601e-09 2.17319e-09 7.73091 5.47488 0.417314 -1.58407e-10 2.60601e-09 2.1732e-09 2.90554 0.965183 0.102902 -1.58398e-10 2.60601e-09 2.1732e-09 10.2786 0.731801 0.0259123 -1.58409e-10 2.60601e-09 2.17321e-09 2.22167 -0.733487 -0.20892 -4.64352e-13 -2.63977e-13 1.85913e-13 -53.1044 48.43 -33.8034 27.5432 -28.3602 -64.6372 0.601383 -21.4785 3.17005 5.09001e-10 -2.35977e-09 -1.11095e-08 1.05829e-09 -4.26761e-09 -1.91821e-08 5.08999e-10 -2.35977e-09 -1.11095e-08 -7.73091 5.47488 -0.417314 5.09001e-10 -2.35977e-09 -1.11095e-08 -2.90554 0.965183 -0.102902 5.09001e-10 -2.35977e-09 -1.11095e-08 -10.2786 0.731801 -0.0259123 5.09006e-10 -2.35976e-09 -1.11095e-08 -2.22167 -0.733487 0.20892 -2.03217e-16 0.0 -3.88251e-19 -119.686 -79.5172 -124.143 -0.313529 38.6824 0.72717 -0.220305 -1.06565 0.804023 2.03217e-16 0.0 3.88251e-19 1.84702 -68.6732 -10.0831 0.0196458 27.5916 -0.801163 -1.43812 -5.2667 -13.7534
-18.8032 80.4632 -22.3053 12.1877 41.6857 69.5773 13.9009 56.2555 12.8611 2.81965 -3.78296 5.55281 2.19174 5.07836 -10.9663 -16.0091 -36.8681 -29.8318 -0.0 0.0 0.0 -0.0 0.0 0.0 -4.05573e-13 -1.1853e-13 -6.55392e-14 21.5788 -46.2384 62.8399 -12.7721 -6.00508 23.1147 -0.158524 -11.2719 -1.60516 -7.24925e-10 3.61413e-09 1.72242e-09 -1.2502e-09 6.27056e-09 2.96386e-09 -7.2492e-10 3.61413e-09 1.72241e-09 7.73091 5.47488 0.417314 -7.24928e-10 3.61413e-09 1.72242e-09 2.90554 0.965183 0.102902 -7.2492e-10 3.61413e-09 1.72242e-09 10.2786 0.731801 0.0259123 -7.2493e-10 3.61413e-09 1.72243e-09 2.22167 -0.733487 -0.20892 -4.05702e-13 -1.18521e-13 -6.57729e-14 -53.1013 48.4868 -33.7949 27.5412 -28.3519 -64.6241 0.600734 -21.4674 3.16825 8.06049e-10 -3.05993e-09 -7.9166e-09 1.51743e-09 -5.42118e-09 -1.36582e-08 8.06048e-10 -3.05993e-09 -7.9166e-09 -7.73091 5.47488 -0.417314 8.0605e-10 -3.05993e-09 -7.9166e-09 -2.90554 0.965183 -0.102902 8.0605e-10 -3.05993e-09 -7.91661e-09 -10.2786 0.731801 -0.0259123 8.06053e-10 -3.05993e-09 -7.91661e-09 -2.22167 -0.733487 0.20892 -2.03217e-16 0.0 -3.88251e-19 -119.931 -79.4741 -124.389 -0.313928 38.7053 0.727717 -0.218447 -1.05902 0.823946 2.03217e-16 0.0 3.88251e-19 1.78783 -68.7282 -10.1428 0.0202082 27.6196 -0.80141 -1.43723 -5.26478 -13.745
-18.8787 80.4776 -22.2971 12.0289 41.7128 69.6842 13.9465 56.2359 12.8109 2.79058 -3.81203 5.54508 2.17238 5.10202 -10.9686 -15.9413 -36.864 -29.803 -0.0 0.0 0.0 -0.0 0.0 0.0 -3.04137e-13 1.01783e-13 -4.33543e-13 21.542 -46.1988 62.7937 -12.7814 -6.01199 23.133 -0.152042 -11.0441 -1.57187 -1.7231e-09 4.82549e-09 8.38034e-10 -2.97191e-09 8.37273e-09 1.42999e-09 -1.7231e-09 4.82549e-09 8.38026e-10 7.73091 5.47488 0.417314 -1.72311e-09 4.82549e-09 8.38037e-10 2.90554 0.965183 0.102902 -1.7231e-09 4.82549e-09 8.38037e-10 10.2786 0.731801 0.0259123 -1.72311e-09 4.82549e-09 8.38045e-10 2.22167 -0.733487 -0.20892 -3.0431e-13 1.01771e-13 -4.33829e-13 -53.1212 48.519 -33.7559 27.5396 -28.3455 -64.6141 0.601888 -21.4868 3.17141 1.25622e-09 -4.00087e-09 -2.37873e-09 2.20164e-09 -6.94889e-09 -4.07887e-09 1.25622e-09 -4.00087e-09 -2.37872e-09 -7.73091 5.47488 -0.417314 1.25622e-09 -4.00087e-09 -2.37873e-09 -2.90554 0.965183 -0.102902 1.25623e-09 -4.00087e-09 -2.37873e-09 -10.2786 0.731801 -0.0259123 1.25623e-09 -4.00086e-09 -2.37873e-09 -2.22167 -0.733487 0.20892 -2.03217e-16 0.0 -3.88251e-19 -119.998 -79.4052 -124.488 -0.314264 38.7248 0.728049 -0.213858 -1.04604 0.875333 2.03217e-16 0.0 3.88251e-19 1.65761 -68.7801 -10.2881 0.0211556 27.6619 -0.8015 -1.43927 -5.2725 -13.7338
-18.8508 80.4641 -22.2921 12.1016 41.7171 69.6787 14.0276 56.2286 12.7384 2.75423 -3.84176 5.5366 2.15464 5.13082 -10.9681 -15.8762 -36.8658 -29.7702 -0.0 0.0 0.0 -0.0 0.0 0.0 -2.25912e-13 2.95859e-13 -7.59656e-13 21.503 -46.1551 62.745 -12.7959 -6.02268 23.1614 -0.146731 -10.8553 -1.54432 -2.78843e-09 5.91262e-09 -4.66864e-11 -4.80973e-09 1.02599e-08 -1.05012e-10 -2.78843e-09 5.91263e-09 -4.66977e-11 7.73091 5.47488 0.417314 -2.78844e-09 5.91262e-09 -4.66839e-11 2.90554 0.965183 0.102902 -2.78843e-09 5.91262e-09 -4.66856e-11 10.2786 0.731801 0.0259123 -2.78844e-09 5.91262e-09 -4.66783e-11 2.22167 -0.733487 -0.20892 -2.26127e-13 2.95823e-13 -7.59988e-13 -53.1482 48.5438 -33.708 27.5395 -28.3452 -64.6134 0.603557 -21.5149 3.17597 1.7008e-09 -4.92631e-09 2.86603e-09 2.88082e-09 -8.45441e-09 4.99378e-09 1.70079e-09 -4.92631e-09 2.86604e-09 -7.73091 5.47488 -0.417314 1.7008e-09 -4.92631e-09 2.86604e-09 -2.90554 0.965183 -0.102902 1.7008e-09 -4.92631e-09 2.86603e-09 -10.2786 0.731801 -0.0259123 1.7008e-09 -4.92631e-09 2.86603e-09 -2.22167 -0.733487 0.20892 -2.03217e-16 0.0 -3.88251e-19 -119.957 -79.3407 -124.5 -0.314441 38.7352 0.728096 -0.208731 -1.03285 0.932845 2.03217e-16 0.0 3.88251e-19 1.53795 -68.8267 -10.436 0.0222021 27.7089 -0.801537 -1.44241 -5.28038 -13.7276
